<mxfile host="app.diagrams.net" modified="2023-05-30T02:33:30.137Z" agent="Mozilla/5.0 (Macintosh; Intel Mac OS X 10_15_7) AppleWebKit/537.36 (KHTML, like Gecko) Chrome/113.0.0.0 Safari/537.36" etag="BK_FQx5wa3lc8MYOoo_Q" version="21.3.5" type="github">
  <diagram name="第 1 页" id="FBELEBKbMjWVdmZJGZkb">
    <mxGraphModel dx="1580" dy="2170" grid="1" gridSize="10" guides="1" tooltips="1" connect="1" arrows="1" fold="1" page="1" pageScale="1" pageWidth="1654" pageHeight="1169" math="0" shadow="0">
      <root>
        <mxCell id="0" />
        <mxCell id="1" parent="0" />
        <mxCell id="Yd-Ca19W7toAiOon0XXU-24" style="edgeStyle=orthogonalEdgeStyle;rounded=0;orthogonalLoop=1;jettySize=auto;html=1;exitX=1;exitY=0.5;exitDx=0;exitDy=0;entryX=0;entryY=0.5;entryDx=0;entryDy=0;strokeWidth=2;" edge="1" parent="1" source="Yd-Ca19W7toAiOon0XXU-1" target="Yd-Ca19W7toAiOon0XXU-14">
          <mxGeometry relative="1" as="geometry" />
        </mxCell>
        <mxCell id="Yd-Ca19W7toAiOon0XXU-1" value="&lt;font style=&quot;font-size: 25px;&quot;&gt;半结构化数据&lt;/font&gt;" style="rounded=0;whiteSpace=wrap;html=1;strokeWidth=2;" vertex="1" parent="1">
          <mxGeometry x="40" y="210" width="220" height="50" as="geometry" />
        </mxCell>
        <mxCell id="Yd-Ca19W7toAiOon0XXU-26" style="edgeStyle=orthogonalEdgeStyle;rounded=0;orthogonalLoop=1;jettySize=auto;html=1;exitX=1;exitY=0.5;exitDx=0;exitDy=0;entryX=0;entryY=0.5;entryDx=0;entryDy=0;strokeWidth=2;" edge="1" parent="1" source="Yd-Ca19W7toAiOon0XXU-2" target="Yd-Ca19W7toAiOon0XXU-14">
          <mxGeometry relative="1" as="geometry" />
        </mxCell>
        <mxCell id="Yd-Ca19W7toAiOon0XXU-2" value="&lt;font style=&quot;font-size: 25px;&quot;&gt;非结构化数据&lt;/font&gt;" style="rounded=0;whiteSpace=wrap;html=1;strokeWidth=2;" vertex="1" parent="1">
          <mxGeometry x="40" y="280" width="220" height="50" as="geometry" />
        </mxCell>
        <mxCell id="Yd-Ca19W7toAiOon0XXU-3" value="&lt;font style=&quot;font-size: 25px;&quot;&gt;实体抽取&lt;/font&gt;" style="rounded=0;whiteSpace=wrap;html=1;strokeWidth=2;" vertex="1" parent="1">
          <mxGeometry x="595" y="190" width="170" height="50" as="geometry" />
        </mxCell>
        <mxCell id="Yd-Ca19W7toAiOon0XXU-4" value="&lt;font style=&quot;font-size: 25px;&quot;&gt;关系抽取&lt;/font&gt;" style="rounded=0;whiteSpace=wrap;html=1;strokeWidth=2;" vertex="1" parent="1">
          <mxGeometry x="595" y="260" width="170" height="50" as="geometry" />
        </mxCell>
        <mxCell id="Yd-Ca19W7toAiOon0XXU-5" value="&lt;font style=&quot;font-size: 25px;&quot;&gt;属性抽取&lt;/font&gt;" style="rounded=0;whiteSpace=wrap;html=1;strokeWidth=2;" vertex="1" parent="1">
          <mxGeometry x="595" y="330" width="170" height="50" as="geometry" />
        </mxCell>
        <mxCell id="Yd-Ca19W7toAiOon0XXU-40" style="edgeStyle=orthogonalEdgeStyle;rounded=0;orthogonalLoop=1;jettySize=auto;html=1;exitX=1;exitY=0.5;exitDx=0;exitDy=0;strokeWidth=2;" edge="1" parent="1" source="Yd-Ca19W7toAiOon0XXU-8" target="Yd-Ca19W7toAiOon0XXU-39">
          <mxGeometry relative="1" as="geometry" />
        </mxCell>
        <mxCell id="Yd-Ca19W7toAiOon0XXU-8" value="&lt;font style=&quot;font-size: 25px;&quot;&gt;结构化数据&lt;/font&gt;" style="rounded=0;whiteSpace=wrap;html=1;strokeWidth=2;" vertex="1" parent="1">
          <mxGeometry x="40" y="470" width="220" height="50" as="geometry" />
        </mxCell>
        <mxCell id="Yd-Ca19W7toAiOon0XXU-27" style="edgeStyle=orthogonalEdgeStyle;rounded=0;orthogonalLoop=1;jettySize=auto;html=1;exitX=1;exitY=0.5;exitDx=0;exitDy=0;entryX=0;entryY=0.5;entryDx=0;entryDy=0;strokeWidth=2;" edge="1" parent="1" source="Yd-Ca19W7toAiOon0XXU-14" target="Yd-Ca19W7toAiOon0XXU-18">
          <mxGeometry relative="1" as="geometry" />
        </mxCell>
        <mxCell id="Yd-Ca19W7toAiOon0XXU-14" value="&lt;font style=&quot;font-size: 25px;&quot;&gt;数据标注&lt;/font&gt;" style="rounded=0;whiteSpace=wrap;html=1;strokeWidth=2;" vertex="1" parent="1">
          <mxGeometry x="330" y="245" width="170" height="50" as="geometry" />
        </mxCell>
        <mxCell id="Yd-Ca19W7toAiOon0XXU-15" value="&lt;font style=&quot;font-size: 25px;&quot;&gt;数据整合&lt;/font&gt;" style="rounded=0;whiteSpace=wrap;html=1;strokeWidth=2;" vertex="1" parent="1">
          <mxGeometry x="935" y="380" width="170" height="50" as="geometry" />
        </mxCell>
        <mxCell id="Yd-Ca19W7toAiOon0XXU-16" value="&lt;font style=&quot;font-size: 25px;&quot;&gt;实体对&lt;/font&gt;" style="rounded=0;whiteSpace=wrap;html=1;strokeWidth=2;" vertex="1" parent="1">
          <mxGeometry x="935" y="470" width="170" height="50" as="geometry" />
        </mxCell>
        <mxCell id="Yd-Ca19W7toAiOon0XXU-29" style="edgeStyle=orthogonalEdgeStyle;rounded=0;orthogonalLoop=1;jettySize=auto;html=1;exitX=1;exitY=0.75;exitDx=0;exitDy=0;entryX=0;entryY=0.5;entryDx=0;entryDy=0;strokeWidth=2;" edge="1" parent="1" source="Yd-Ca19W7toAiOon0XXU-18" target="Yd-Ca19W7toAiOon0XXU-20">
          <mxGeometry relative="1" as="geometry" />
        </mxCell>
        <mxCell id="Yd-Ca19W7toAiOon0XXU-18" value="" style="swimlane;startSize=0;strokeWidth=2;" vertex="1" parent="1">
          <mxGeometry x="550" y="140" width="260" height="260" as="geometry">
            <mxRectangle x="400" y="120" width="50" height="40" as="alternateBounds" />
          </mxGeometry>
        </mxCell>
        <mxCell id="Yd-Ca19W7toAiOon0XXU-19" value="&lt;font style=&quot;font-size: 25px;&quot;&gt;知识抽取&lt;/font&gt;" style="text;html=1;align=center;verticalAlign=middle;resizable=0;points=[];autosize=1;strokeColor=none;fillColor=none;" vertex="1" parent="Yd-Ca19W7toAiOon0XXU-18">
          <mxGeometry x="5" width="120" height="40" as="geometry" />
        </mxCell>
        <mxCell id="Yd-Ca19W7toAiOon0XXU-38" style="edgeStyle=orthogonalEdgeStyle;rounded=0;orthogonalLoop=1;jettySize=auto;html=1;exitX=1;exitY=0.5;exitDx=0;exitDy=0;entryX=0;entryY=0.5;entryDx=0;entryDy=0;strokeWidth=2;" edge="1" parent="1" source="Yd-Ca19W7toAiOon0XXU-20" target="Yd-Ca19W7toAiOon0XXU-37">
          <mxGeometry relative="1" as="geometry" />
        </mxCell>
        <mxCell id="Yd-Ca19W7toAiOon0XXU-20" value="" style="swimlane;startSize=0;strokeWidth=2;" vertex="1" parent="1">
          <mxGeometry x="900" y="320" width="240" height="240" as="geometry">
            <mxRectangle x="400" y="120" width="50" height="40" as="alternateBounds" />
          </mxGeometry>
        </mxCell>
        <mxCell id="Yd-Ca19W7toAiOon0XXU-21" value="&lt;font style=&quot;font-size: 25px;&quot;&gt;知识融合&lt;/font&gt;" style="text;html=1;align=center;verticalAlign=middle;resizable=0;points=[];autosize=1;strokeColor=none;fillColor=none;" vertex="1" parent="Yd-Ca19W7toAiOon0XXU-20">
          <mxGeometry x="5" width="120" height="40" as="geometry" />
        </mxCell>
        <mxCell id="Yd-Ca19W7toAiOon0XXU-37" value="&lt;font style=&quot;font-size: 25px;&quot;&gt;知识图谱&lt;/font&gt;" style="rounded=0;whiteSpace=wrap;html=1;strokeWidth=2;" vertex="1" parent="1">
          <mxGeometry x="1280" y="415" width="170" height="50" as="geometry" />
        </mxCell>
        <mxCell id="Yd-Ca19W7toAiOon0XXU-44" style="edgeStyle=orthogonalEdgeStyle;rounded=0;orthogonalLoop=1;jettySize=auto;html=1;exitX=1;exitY=0.5;exitDx=0;exitDy=0;entryX=-0.003;entryY=0.728;entryDx=0;entryDy=0;entryPerimeter=0;strokeWidth=2;" edge="1" parent="1" source="Yd-Ca19W7toAiOon0XXU-39" target="Yd-Ca19W7toAiOon0XXU-20">
          <mxGeometry relative="1" as="geometry" />
        </mxCell>
        <mxCell id="Yd-Ca19W7toAiOon0XXU-39" value="&lt;span style=&quot;font-size: 25px;&quot;&gt;数据处理&lt;/span&gt;" style="rounded=0;whiteSpace=wrap;html=1;strokeWidth=2;" vertex="1" parent="1">
          <mxGeometry x="595" y="470" width="170" height="50" as="geometry" />
        </mxCell>
      </root>
    </mxGraphModel>
  </diagram>
</mxfile>
